<svg xmlns="http://www.w3.org/2000/svg" viewBox="0 0 20 20"><path d="M18.24 8.24h-3.98l2.83-2.83c.69-.69.69-1.8 0-2.49-.69-.69-1.8-.69-2.49 0l-2.84 2.84v-4C11.76.79 10.97 0 10 0S8.24.79 8.24 1.76v4L5.42 2.94c-.69-.69-1.8-.69-2.49 0s-.69 1.8 0 2.49l2.81 2.81H1.76C.79 8.24 0 9.03 0 10s.79 1.76 1.76 1.76h4l-2.82 2.82c-.69.69-.69 1.8 0 2.49.69.69 1.8.69 2.49 0l2.81-2.81v3.98c0 .97.79 1.76 1.76 1.76s1.76-.79 1.76-1.76v-3.98l2.83 2.83c.69.69 1.8.69 2.49 0 .69-.69.69-1.8 0-2.49l-2.84-2.84h4c.97 0 1.76-.79 1.76-1.76s-.79-1.76-1.76-1.76Z" fill="#293d89"/></svg>