<?xml version="1.0" encoding="utf-8"?><svg xmlns="http://www.w3.org/2000/svg" xmlns:xlink="http://www.w3.org/1999/xlink"><symbol viewBox="0 0 90 80" fill="none" id="arrow-around" xmlns="http://www.w3.org/2000/svg"><g filter="url(#aa)" fill="currentColor"><path fill-rule="evenodd" clip-rule="evenodd" d="M20.896 26.37c.395.138.75.097 1.093.107 7.89.219 15.634 1.332 23.172 3.697C56.754 33.811 66.129 40.6 73.436 50.226c2.94 3.875 5.017 8.243 6.306 12.94.929 3.39 1.036 6.834-.03 10.246-.2.643-.449 1.276-.934 1.776-.243.252-.518.456-.892.339-.386-.121-.459-.451-.494-.802-.108-1.099-.271-2.193-.326-3.294-.262-5.226-2.068-9.921-4.825-14.297-3.532-5.606-8.168-10.13-13.563-13.935-7.03-4.956-14.887-7.84-23.287-9.426-4.315-.815-8.648-1.424-13.05-1.442-.225 0-.45.013-.673.027-.027.001-.052.045-.086.077.106.224.344.268.53.37 3.378 1.86 6.72 3.776 9.786 6.133.804.618 1.53 1.317 2.142 2.13.282.374.525.774.65 1.232.272.998-.299 1.608-1.3 1.348a21.48 21.48 0 0 1-4.64-1.828c-2.976-1.576-5.936-3.182-8.913-4.755-3.63-1.918-7.405-3.506-11.29-4.837a6.808 6.808 0 0 1-.578-.218c-1.697-.76-2.144-2.66-.966-4.107.397-.486.905-.84 1.428-1.174 1.045-.667 2.14-1.244 3.247-1.796 2.384-1.187 4.772-2.364 7.165-3.535a18.916 18.916 0 0 1 3.96-1.428c.99-.232 1.925-.622 2.87-.987.595-.23 1.19-.461 1.793-.664.702-.236 1.27-.094 1.631.37.36.463.364 1.149-.005 1.742-.333.536-.79.965-1.324 1.28-2.314 1.359-4.245 3.288-6.675 4.469-.059.029-.099.093-.197.19Z"/><path d="M37.154 23.25c-.539-.204-.96-.497-1.263-.88a2.521 2.521 0 0 1-.529-1.325c-.05-.5.03-1.03.242-1.59.211-.558.501-1.008.87-1.35a2.522 2.522 0 0 1 1.274-.644c.48-.086.99-.027 1.529.177.618.233 1.08.583 1.382 1.048.306.467.445.994.42 1.583l-1.133-.103c.023-.365-.05-.682-.218-.95-.168-.273-.44-.48-.814-.62-.341-.13-.656-.162-.943-.097a1.49 1.49 0 0 0-.756.45c-.22.233-.4.537-.541.911a2.714 2.714 0 0 0-.197 1.042c.01.32.1.6.269.837.172.24.429.423.77.553.374.141.714.166 1.02.073.306-.092.57-.282.793-.568l.917.672a2.6 2.6 0 0 1-1.361.909c-.536.148-1.112.105-1.731-.129Zm3.266 1.12 2.16-5.34 1.009.407-.888 2.195 2.388.966.888-2.195 1.009.408-2.16 5.34-1.009-.408.891-2.203-2.388-.966-.89 2.203-1.01-.408Zm5.139 2.078 3.905-4.586 1.49.646-.675 5.985-1.028-.446.58-5.284.192.082-3.437 4.048-1.027-.445Zm1.446-.682.403-.932 2.79 1.209-.404.932-2.79-1.209Zm4.203 3.137 2.452-5.212 1 .47.63 4.54 1.635-3.474.999.47-2.452 5.212-.999-.47-.631-4.54-1.635 3.474-.999-.47Zm7.498 3.794a2.825 2.825 0 0 1-.827-.653 2.563 2.563 0 0 1-.502-.916 2.742 2.742 0 0 1-.089-1.11c.047-.397.184-.812.412-1.243.297-.564.657-.986 1.08-1.267a2.57 2.57 0 0 1 1.348-.447c.475-.014.934.095 1.377.329.656.346 1.091.77 1.306 1.272.214.502.239 1.065.072 1.689l-1.058-.377a1.665 1.665 0 0 0-.078-.95c-.113-.29-.331-.52-.656-.695-.32-.175-.626-.247-.916-.216-.291.03-.56.15-.808.356a2.8 2.8 0 0 0-.648.843 2.738 2.738 0 0 0-.326 1.004c-.028.317.027.604.166.86.138.258.368.474.689.649.217.12.435.187.654.2.221.015.439-.032.652-.14.214-.107.417-.282.611-.523l-.807-.425.392-.743 1.833.966a1.78 1.78 0 0 1-.075.168l-.068.137c-.257.488-.584.869-.982 1.142a2.494 2.494 0 0 1-1.306.445c-.473.022-.955-.096-1.446-.355Zm3.047 1.503 3.033-4.897 3.196 1.98-.535.864-2.271-1.407-.649 1.047 1.864 1.154-.535.864-1.864-1.154-.78 1.258 2.272 1.407-.534.864-3.197-1.98Zm6.289 4.41 2.592-5.437.826.757-2.136 4.465 4.278-2.504.826.757-5.188 3.058-1.198-1.096Zm3.318 3.167 4.187-3.957.747.79-4.186 3.957-.748-.79Zm1.902 2.009 4.372-3.75 2.448 2.854-.771.662-1.74-2.029-.935.803 1.427 1.663-.771.662-1.427-1.664-1.124.963 1.74 2.029-.772.661-2.447-2.854Zm3.93 4.681 3.574-4.822.69.913-2.505 3.25 3.803-1.523.697.907-2.506 3.251 3.81-1.529.69.913-5.612 2.13-.647-.855 2.427-3.236-3.774 1.456-.647-.855Z"/></g><defs><filter id="aa" x="0" y="1" width="90" height="80" filterUnits="userSpaceOnUse" color-interpolation-filters="sRGB"><feFlood flood-opacity="0" result="BackgroundImageFix"/><feColorMatrix in="SourceAlpha" values="0 0 0 0 0 0 0 0 0 0 0 0 0 0 0 0 0 0 127 0" result="hardAlpha"/><feOffset dy="1"/><feGaussianBlur stdDeviation="2"/><feComposite in2="hardAlpha" operator="out"/><feColorMatrix values="0 0 0 0 1 0 0 0 0 1 0 0 0 0 1 0 0 0 1 0"/><feBlend in2="BackgroundImageFix" result="effect1"/><feBlend in="SourceGraphic" in2="effect1" result="shape"/></filter></defs></symbol><symbol viewBox="0 0 16 16" fill="none" id="arrow-up" xmlns="http://www.w3.org/2000/svg"><path d="M13.65 2.94c0-.07-.01-.13-.04-.19a.636.636 0 0 0-.36-.35.751.751 0 0 0-.26-.05H3a.67.67 0 0 0 0 1.34h8.39l-8.86 8.84c-.26.26-.26.68 0 .94.13.13.3.2.47.2s.34-.07.47-.2l8.86-8.86V13a.67.67 0 0 0 1.34 0V3s-.01-.04-.01-.06Z" fill="currentColor"/></symbol><symbol viewBox="0 0 24 24" fill="none" id="calendar" xmlns="http://www.w3.org/2000/svg"><path d="M8 2v4m8-4v4m3-2H5a2 2 0 0 0-2 2v14a2 2 0 0 0 2 2h14a2 2 0 0 0 2-2V6a2 2 0 0 0-2-2ZM3 10h18" stroke="currentColor" stroke-width="2" stroke-linecap="round" stroke-linejoin="round"/></symbol><symbol viewBox="0 0 24 24" fill="none" id="cross" xmlns="http://www.w3.org/2000/svg"><path d="M18 6 6 18M6 6l12 12" stroke="currentColor" stroke-width="2" stroke-linecap="round" stroke-linejoin="round"/></symbol><symbol viewBox="0 0 24 24" fill="none" id="doctor" xmlns="http://www.w3.org/2000/svg"><path d="M19 3H5a2 2 0 0 0-2 2v14a2 2 0 0 0 2 2h14a2 2 0 0 0 2-2V5a2 2 0 0 0-2-2Z" stroke="currentColor" stroke-width="2" stroke-linecap="round" stroke-linejoin="round"/><path d="M12 13a3 3 0 1 0 0-6 3 3 0 0 0 0 6Zm-5 8v-2a2 2 0 0 1 2-2h6a2 2 0 0 1 2 2v2" stroke="currentColor" stroke-width="2" stroke-linecap="round" stroke-linejoin="round"/></symbol><symbol viewBox="0 0 16 16" fill="none" id="dots" xmlns="http://www.w3.org/2000/svg"><path d="M8 8.665a.667.667 0 1 0 0-1.333.667.667 0 0 0 0 1.333Zm4.667 0a.667.667 0 1 0 0-1.333.667.667 0 0 0 0 1.333Zm-9.334 0a.667.667 0 1 0 0-1.333.667.667 0 0 0 0 1.333Z" stroke="currentColor" stroke-width="1.333" stroke-linecap="round" stroke-linejoin="round"/></symbol><symbol viewBox="0 0 24 24" fill="none" id="down" xmlns="http://www.w3.org/2000/svg"><path d="m6 9 6 6 6-6" stroke="currentColor" stroke-width="2" stroke-linecap="round" stroke-linejoin="round"/></symbol><symbol viewBox="0 0 16 16" fill="none" id="edit" xmlns="http://www.w3.org/2000/svg"><path d="M11 2.602a1.707 1.707 0 0 1 1.237-.604 1.72 1.72 0 0 1 1.284.5 1.696 1.696 0 0 1 .494 1.278 1.687 1.687 0 0 1-.617 1.225l-8.096 8.096-3.298.9.9-3.299L11 2.602Zm-1.2 1.2L12.2 6.2" stroke="currentColor" stroke-width="1.199" stroke-linecap="round" stroke-linejoin="round"/></symbol><symbol viewBox="0 0 24 24" fill="none" id="expand" xmlns="http://www.w3.org/2000/svg"><path d="m21 21-6-6m6 6v-4.8m0 4.8h-4.8M3 16.2V21m0 0h4.8M3 21l6-6m12-7.2V3m0 0h-4.8M21 3l-6 6M3 7.8V3m0 0h4.8M3 3l6 6" stroke="currentColor" stroke-width="2" stroke-linecap="round" stroke-linejoin="round"/></symbol><symbol viewBox="0 0 24 24" fill="none" id="eye" xmlns="http://www.w3.org/2000/svg"><path d="M2 12s3-7 10-7 10 7 10 7-3 7-10 7-10-7-10-7Z" stroke="currentColor" stroke-width="2" stroke-linecap="round" stroke-linejoin="round"/><path d="M12 15a3 3 0 1 0 0-6 3 3 0 0 0 0 6Z" stroke="currentColor" stroke-width="2" stroke-linecap="round" stroke-linejoin="round"/></symbol><symbol viewBox="0 0 24 24" fill="none" id="eye-slash" xmlns="http://www.w3.org/2000/svg"><path d="M9.88 9.88a3 3 0 1 0 4.24 4.24m-3.39-9.04c.421-.052.845-.08 1.27-.08 7 0 10 7 10 7a13.163 13.163 0 0 1-1.67 2.68" stroke="currentColor" stroke-width="2" stroke-linecap="round" stroke-linejoin="round"/><path d="M6.61 6.61A13.526 13.526 0 0 0 2 12s3 7 10 7a9.74 9.74 0 0 0 5.39-1.61M2 2l20 20" stroke="currentColor" stroke-width="2" stroke-linecap="round" stroke-linejoin="round"/></symbol><symbol viewBox="0 0 24 24" fill="none" id="facebook" xmlns="http://www.w3.org/2000/svg"><path d="M18 2h-3a5 5 0 0 0-5 5v3H7v4h3v8h4v-8h3l1-4h-4V7a1 1 0 0 1 1-1h3V2Z" stroke="currentColor" stroke-width="2" stroke-linecap="round" stroke-linejoin="round"/></symbol><symbol viewBox="0 0 24 24" fill="none" id="left" xmlns="http://www.w3.org/2000/svg"><path d="m14 18-6-6 6-6" stroke="currentColor" stroke-width="2" stroke-linecap="round" stroke-linejoin="round"/></symbol><symbol viewBox="0 0 24 24" fill="none" id="loader" xmlns="http://www.w3.org/2000/svg"><path d="M12.5 2v4m0 12v4M5.43 4.93l2.83 2.83m8.48 8.48 2.83 2.83M2.5 12h4m12 0h4M5.43 19.07l2.83-2.83m8.48-8.48 2.83-2.83" stroke="currentColor" stroke-width="2" stroke-linecap="round" stroke-linejoin="round"/></symbol><symbol viewBox="0 0 24 24" fill="none" id="message" xmlns="http://www.w3.org/2000/svg"><path d="M22 10.5V6a2 2 0 0 0-2-2H4a2 2 0 0 0-2 2v12c0 1.1.9 2 2 2h12.5" stroke="currentColor" stroke-width="2" stroke-linecap="round" stroke-linejoin="round"/><path d="m22 7-8.97 5.7a1.94 1.94 0 0 1-2.06 0L2 7m18 7v4m0 4v.01" stroke="currentColor" stroke-width="2" stroke-linecap="round" stroke-linejoin="round"/></symbol><symbol viewBox="0 0 24 24" fill="none" id="plus" xmlns="http://www.w3.org/2000/svg"><path d="M5 12h14m-7-7v14" stroke="currentColor" stroke-width="2" stroke-linecap="round" stroke-linejoin="round"/></symbol><symbol viewBox="0 0 16 16" fill="none" id="profile" xmlns="http://www.w3.org/2000/svg"><path d="M12.667 14v-1.333A2.667 2.667 0 0 0 10 10H6a2.667 2.667 0 0 0-2.667 2.667V14M8 7.333A2.667 2.667 0 1 0 8 2a2.667 2.667 0 0 0 0 5.333Z" stroke="currentColor" stroke-width="1.333" stroke-linecap="round" stroke-linejoin="round"/></symbol><symbol viewBox="0 0 16 16" fill="none" id="question" xmlns="http://www.w3.org/2000/svg"><path d="M8 14.667A6.667 6.667 0 1 0 8 1.333a6.667 6.667 0 0 0 0 13.334Z" stroke="currentColor" stroke-width="1.333" stroke-linecap="round" stroke-linejoin="round"/><path d="M6.06 6a2 2 0 0 1 3.887.667c0 1.333-2 2-2 2M8 11.333h.007" stroke="currentColor" stroke-width="1.333" stroke-linecap="round" stroke-linejoin="round"/></symbol><symbol viewBox="0 0 24 24" fill="none" id="right" xmlns="http://www.w3.org/2000/svg"><path d="m10 18 6-6-6-6" stroke="currentColor" stroke-width="2" stroke-linecap="round" stroke-linejoin="round"/></symbol><symbol viewBox="0 0 24 24" id="tick" xmlns="http://www.w3.org/2000/svg"><path d="m17 8.5-6.88 7L7 12.32" fill="none" stroke="currentColor" stroke-linecap="round" stroke-linejoin="round" stroke-width="2"/></symbol><symbol viewBox="0 0 24 24" fill="none" id="time" xmlns="http://www.w3.org/2000/svg"><path d="M12 22c5.523 0 10-4.477 10-10S17.523 2 12 2 2 6.477 2 12s4.477 10 10 10Z" stroke="currentColor" stroke-width="2" stroke-linecap="round" stroke-linejoin="round"/><path d="M12 6v6l4 2" stroke="currentColor" stroke-width="2" stroke-linecap="round" stroke-linejoin="round"/></symbol><symbol viewBox="0 0 24 24" fill="none" id="up" xmlns="http://www.w3.org/2000/svg"><path d="m18 15-6-6-6 6" stroke="currentColor" stroke-width="2" stroke-linecap="round" stroke-linejoin="round"/></symbol><symbol viewBox="0 0 24 24" fill="none" id="youtube" xmlns="http://www.w3.org/2000/svg"><path d="M2.5 17a24.12 24.12 0 0 1 0-10 2 2 0 0 1 1.4-1.4 49.56 49.56 0 0 1 16.2 0A2 2 0 0 1 21.5 7a24.12 24.12 0 0 1 0 10 2 2 0 0 1-1.4 1.4 49.551 49.551 0 0 1-16.2 0A2 2 0 0 1 2.5 17Z" stroke="currentColor" stroke-width="2" stroke-linecap="round" stroke-linejoin="round"/><path d="m10 15 5-3-5-3v6Z" stroke="currentColor" stroke-width="2" stroke-linecap="round" stroke-linejoin="round"/></symbol></svg>